<?xml version="1.0" encoding="UTF-8" standalone="no"?>
<svg
   xmlns:dc="http://purl.org/dc/elements/1.1/"
   xmlns:cc="http://creativecommons.org/ns#"
   xmlns:rdf="http://www.w3.org/1999/02/22-rdf-syntax-ns#"
   xmlns:svg="http://www.w3.org/2000/svg"
   xmlns="http://www.w3.org/2000/svg"
   xmlns:sodipodi="http://sodipodi.sourceforge.net/DTD/sodipodi-0.dtd"
   xmlns:inkscape="http://www.inkscape.org/namespaces/inkscape"
   style="enable-background:new 0 0 50 50;"
   version="1.1"
   viewBox="0 0 50 50"
   xml:space="preserve"
   id="svg13"
   sodipodi:docname="icon.svg"
   inkscape:version="0.92.4 (5da689c313, 2019-01-14)"><metadata
     id="metadata19"><rdf:RDF><cc:Work
         rdf:about=""><dc:format>image/svg+xml</dc:format><dc:type
           rdf:resource="http://purl.org/dc/dcmitype/StillImage" /><dc:title></dc:title></cc:Work></rdf:RDF></metadata><defs
     id="defs17" /><sodipodi:namedview
     pagecolor="#ffffff"
     bordercolor="#666666"
     borderopacity="1"
     objecttolerance="10"
     gridtolerance="10"
     guidetolerance="10"
     inkscape:pageopacity="0"
     inkscape:pageshadow="2"
     inkscape:window-width="1920"
     inkscape:window-height="1137"
     id="namedview15"
     showgrid="false"
     inkscape:zoom="13.350176"
     inkscape:cx="21.0765"
     inkscape:cy="30.16726"
     inkscape:window-x="1672"
     inkscape:window-y="-8"
     inkscape:window-maximized="1"
     inkscape:current-layer="svg13" /><path
     inkscape:connector-curvature="0"
     id="path2"
     d="M 44,49 V 1 H 8 V 6 H 6 v 2 h 2 v 4 H 6 v 2 h 2 v 4 H 6 v 2 h 2 v 4 H 6 v 2 h 2 v 4 H 6 v 2 h 2 v 4 H 6 v 2 h 2 v 4 H 6 v 2 h 2 v 5 z M 10,38 h 2 v -2 h -2 v -4 h 2 v -2 h -2 v -4 h 2 v -2 h -2 v -4 h 2 v -2 h -2 v -4 h 2 V 12 H 10 V 8 h 2 V 6 H 10 V 3 H 42 V 47 H 10 v -3 h 2 v -2 h -2 z"
     style="fill:#20409a;fill-opacity:1" /><path
     inkscape:connector-curvature="0"
     id="path4"
     d="M 37,8 H 17 V 22 H 37 Z M 35,20 H 19 V 10 h 16 z"
     style="fill:#20409a;fill-opacity:1" /><g
     id="g11" /><path
     inkscape:connector-curvature="0"
     d="m 37.205718,23.359981 q 0.72205,0.853386 0.196921,2.42887 -0.525128,1.575488 -1.772305,2.822747 l -2.642046,2.64222 2.625636,11.422274 q 0.08205,0.311814 -0.196921,0.54157 l -2.100512,1.575487 q -0.114872,0.09847 -0.311793,0.09847 -0.06564,0 -0.114872,-0.01643 -0.246154,-0.04924 -0.344613,-0.262581 l -4.578456,-8.336946 -4.25025,4.250529 0.869745,3.183794 q 0.08205,0.278991 -0.131282,0.508751 l -1.575384,1.575484 q -0.147692,0.147701 -0.377436,0.147701 h -0.03282 q -0.246155,-0.03282 -0.393847,-0.213344 l -3.101529,-4.13565 -4.135379,-3.101739 q -0.180514,-0.114879 -0.213334,-0.377461 -0.01643,-0.213345 0.147692,-0.410283 l 1.575384,-1.591895 q 0.147692,-0.147704 0.377432,-0.147704 0.09846,0 0.131282,0.01643 l 3.183584,0.869797 4.25025,-4.250529 -8.336394,-4.578754 q -0.229745,-0.13129 -0.278974,-0.393872 -0.03281,-0.26258 0.147692,-0.443108 l 2.100508,-2.100646 q 0.229744,-0.213345 0.492309,-0.13129 l 10.9128,2.609398 2.625636,-2.625809 q 1.247177,-1.24726 2.822561,-1.772422 1.575381,-0.525163 2.428715,0.196938 z"
     id="path2-0"
     style="stroke-width:0.01641078;fill:#20409a;fill-opacity:1" /></svg>