<?xml version="1.0" standalone="no"?>
<!DOCTYPE svg PUBLIC "-//W3C//DTD SVG 20010904//EN"
 "http://www.w3.org/TR/2001/REC-SVG-20010904/DTD/svg10.dtd">
<svg version="1.0" xmlns="http://www.w3.org/2000/svg"
 width="700.000000pt" height="700.000000pt" viewBox="0 0 700.000000 700.000000"
 preserveAspectRatio="xMidYMid meet">
<metadata>
Created by potrace 1.14, written by Peter Selinger 2001-2017
</metadata>
<g transform="translate(0.000000,700.000000) scale(0.100000,-0.100000)"
fill="#000000" stroke="none">
<path d="M1120 6510 l0 -350 -140 0 -140 0 0 -140 0 -140 140 0 140 0 0 -280
0 -280 -140 0 -140 0 0 -140 0 -140 140 0 140 0 0 -280 0 -280 -140 0 -140 0
0 -140 0 -140 140 0 140 0 0 -280 0 -280 -140 0 -140 0 0 -140 0 -140 140 0
140 0 0 -280 0 -280 -140 0 -140 0 0 -140 0 -140 140 0 140 0 0 -280 0 -280
-140 0 -140 0 0 -140 0 -140 140 0 140 0 0 -280 0 -280 -140 0 -140 0 0 -140
0 -140 140 0 140 0 0 -350 0 -350 2520 0 2520 0 0 3360 0 3360 -2520 0 -2520
0 0 -350z m4760 -3010 l0 -3080 -2240 0 -2240 0 0 210 0 210 140 0 140 0 0
140 0 140 -140 0 -140 0 0 280 0 280 140 0 140 0 0 140 0 140 -140 0 -140 0 0
280 0 280 140 0 140 0 0 140 0 140 -140 0 -140 0 0 280 0 280 140 0 140 0 0
140 0 140 -140 0 -140 0 0 280 0 280 140 0 140 0 0 140 0 140 -140 0 -140 0 0
280 0 280 140 0 140 0 0 140 0 140 -140 0 -140 0 0 280 0 280 140 0 140 0 0
140 0 140 -140 0 -140 0 0 210 0 210 2240 0 2240 0 0 -3080z"/>
<path d="M2380 4900 l0 -980 1400 0 1400 0 0 980 0 980 -1400 0 -1400 0 0
-980z m2520 0 l0 -700 -1120 0 -1120 0 0 700 0 700 1120 0 1120 0 0 -700z"/>
<path d="M4989 3786 c-2 -2 -20 -6 -39 -9 -46 -6 -122 -32 -190 -64 -119 -57
-205 -126 -428 -347 -151 -149 -230 -220 -242 -219 -11 2 -75 16 -142 32 -153
37 -418 101 -438 106 -47 11 -327 77 -340 80 -8 2 -80 19 -160 39 -319 77
-407 97 -440 102 -35 5 -40 1 -199 -157 -89 -89 -167 -173 -172 -186 -18 -48
8 -72 193 -172 95 -52 227 -125 293 -161 136 -76 200 -111 300 -165 39 -21
104 -57 145 -80 90 -50 193 -106 239 -130 l34 -17 -298 -298 c-290 -290 -298
-297 -329 -290 -17 4 -116 31 -221 60 -104 30 -203 53 -219 53 -23 -1 -53 -25
-153 -124 -68 -68 -126 -134 -129 -146 -11 -43 5 -68 73 -118 37 -28 75 -55
83 -62 8 -7 112 -85 230 -173 l215 -161 163 -217 c89 -119 168 -224 175 -232
7 -8 34 -46 62 -83 50 -68 75 -84 118 -73 12 3 77 61 144 128 122 123 139 150
122 193 -4 11 -22 74 -39 140 -18 66 -43 158 -56 205 l-24 85 298 298 298 298
59 -108 c32 -59 67 -122 76 -140 10 -18 35 -63 55 -100 20 -37 45 -81 54 -98
10 -16 32 -57 50 -90 18 -33 44 -80 58 -105 13 -25 79 -144 145 -265 132 -241
164 -295 175 -296 4 0 18 -2 31 -3 18 -2 67 29 180 114 86 65 165 127 175 139
19 21 19 23 -18 189 -46 200 -33 147 -101 437 -50 216 -77 332 -90 390 -2 11
-12 52 -20 90 -9 39 -23 98 -31 133 -24 108 -42 184 -63 273 -36 153 -54 118
190 366 118 120 236 247 261 283 101 143 168 322 162 436 -6 141 -73 210 -208
219 -35 2 -65 3 -67 1z"/>
</g>
</svg>
