<?xml version="1.0" standalone="no"?>
<!DOCTYPE svg PUBLIC "-//W3C//DTD SVG 20010904//EN"
 "http://www.w3.org/TR/2001/REC-SVG-20010904/DTD/svg10.dtd">
<svg version="1.0" xmlns="http://www.w3.org/2000/svg"
 width="700.000000pt" height="700.000000pt" viewBox="0 0 700.000000 700.000000"
 preserveAspectRatio="xMidYMid meet">
<metadata>
Created by potrace 1.11, written by Peter Selinger 2001-2013
</metadata>
<g transform="translate(0.000000,700.000000) scale(0.100000,-0.100000)"
fill="#000000" stroke="none">
<path d="M1120 6510 l0 -350 -140 0 -140 0 0 -140 0 -140 140 0 140 0 0 -280
0 -280 -140 0 -140 0 0 -140 0 -140 140 0 140 0 0 -280 0 -280 -140 0 -140 0
0 -140 0 -140 140 0 140 0 0 -280 0 -280 -140 0 -140 0 0 -140 0 -140 140 0
140 0 0 -280 0 -280 -140 0 -140 0 0 -140 0 -140 140 0 140 0 0 -280 0 -280
-140 0 -140 0 0 -140 0 -140 140 0 140 0 0 -280 0 -280 -140 0 -140 0 0 -140
0 -140 140 0 140 0 0 -350 0 -350 2520 0 2520 0 0 3360 0 3360 -2520 0 -2520
0 0 -350z m4760 -3010 l0 -3080 -2240 0 -2240 0 0 210 0 210 140 0 140 0 0
140 0 140 -140 0 -140 0 0 280 0 280 140 0 140 0 0 140 0 140 -140 0 -140 0 0
280 0 280 140 0 140 0 0 140 0 140 -140 0 -140 0 0 280 0 280 140 0 140 0 0
140 0 140 -140 0 -140 0 0 280 0 280 140 0 140 0 0 140 0 140 -140 0 -140 0 0
280 0 280 140 0 140 0 0 140 0 140 -140 0 -140 0 0 280 0 280 140 0 140 0 0
140 0 140 -140 0 -140 0 0 210 0 210 2240 0 2240 0 0 -3080z"/>
<path d="M2380 4900 l0 -980 1400 0 1400 0 0 980 0 980 -1400 0 -1400 0 0
-980z m2520 0 l0 -700 -1120 0 -1120 0 0 700 0 700 1120 0 1120 0 0 -700z"/>
<path d="M4961 3780 c-111 -23 -234 -78 -344 -152 -34 -23 -163 -142 -287
-264 l-225 -223 -145 35 c-509 123 -1401 334 -1411 334 -7 0 -88 -75 -181
-167 -145 -145 -168 -171 -168 -198 0 -17 6 -38 13 -47 6 -8 273 -158 592
-333 319 -174 583 -320 587 -324 4 -4 -126 -140 -290 -304 l-297 -297 -219 60
c-120 33 -233 60 -250 60 -28 0 -49 -17 -159 -128 -105 -106 -127 -134 -127
-158 0 -16 4 -34 8 -41 4 -7 140 -112 302 -233 l295 -221 208 -277 c244 -324
250 -332 291 -332 25 0 51 20 158 128 106 106 128 133 128 157 0 17 -27 129
-60 250 l-60 220 298 298 299 299 322 -589 c178 -323 330 -594 339 -601 38
-29 69 -15 232 108 88 66 164 129 170 140 9 16 -28 187 -176 831 l-186 810
224 227 c268 272 339 371 398 557 41 130 25 273 -36 327 -49 43 -160 65 -243
48z"/>
</g>
</svg>
